<?xml version="1.0" encoding="UTF-8" standalone="no"?>
<!DOCTYPE svg PUBLIC "-//W3C//DTD SVG 1.1//EN" "http://www.w3.org/Graphics/SVG/1.1/DTD/svg11.dtd">
<svg width="100%" height="100%" viewBox="0 0 2847 1050" version="1.1" xmlns="http://www.w3.org/2000/svg" xmlns:xlink="http://www.w3.org/1999/xlink" xml:space="preserve" style="fill-rule:evenodd;clip-rule:evenodd;stroke-linejoin:round;stroke-miterlimit:1.41421;">
    <g transform="matrix(1,0,0,1,-82.5846,-898.343)">
        <g transform="matrix(4.16667,0,0,4.16667,513.771,-513.771)">
            <g>
                <g transform="matrix(1.65175,0,0,1.65175,85.4006,-596.249)">
                    <g transform="matrix(1,0,0,1,-123.305,123.305)">
                        <path d="M200.309,542.256L184.349,542.256L184.349,518.556L178.529,518.556L178.529,542.256L162.569,542.256L162.569,495.996L178.529,495.996L178.529,505.236L184.349,505.236L184.349,495.996L200.309,495.996L200.309,542.256Z" style="fill:rgb(41,38,39);fill-rule:nonzero;"/>
                    </g>
                    <g transform="matrix(1,0,0,1,-123.305,123.305)">
                        <path d="M241.528,524.976L229.168,524.976L229.168,513.336L241.528,513.336L241.528,524.976ZM248.008,542.256L211.108,542.256L211.108,495.997L248.008,495.997L248.008,510.336L227.008,510.336L227.008,527.976L248.008,527.976L248.008,542.256Z" style="fill:rgb(41,38,39);fill-rule:nonzero;"/>
                    </g>
                    <g transform="matrix(1,0,0,1,-123.305,123.305)">
                        <path d="M287.548,542.256L258.748,542.256L258.748,495.996L274.648,495.996L274.648,527.916L287.548,527.916L287.548,542.256Z" style="fill:rgb(41,38,39);fill-rule:nonzero;"/>
                    </g>
                    <g transform="matrix(1,0,0,1,-123.305,123.305)">
                        <rect x="298.347" y="495.996" width="15.96" height="46.26" style="fill:rgb(41,38,39);fill-rule:nonzero;"/>
                    </g>
                    <g transform="matrix(1,0,0,1,-123.305,123.305)">
                        <path d="M422.546,510.336L408.206,510.336C411.646,511.696 414.495,514.366 416.756,518.346C419.015,522.326 420.146,526.576 420.146,531.096C420.146,535.137 419.186,538.857 417.266,542.256L389.246,542.256L389.246,527.976L403.826,527.976C400.346,526.616 397.445,523.946 395.126,519.966C392.806,515.986 391.646,511.716 391.646,507.156C391.646,502.996 392.606,499.276 394.525,495.996L422.546,495.996L422.546,510.336Z" style="fill:rgb(41,38,39);fill-rule:nonzero;"/>
                    </g>
                    <g transform="matrix(1,0,0,1,-123.305,123.305)">
                        <path d="M370.271,518.879C370.271,528.682 362.324,536.629 352.521,536.629C342.718,536.629 334.771,528.682 334.771,518.879C334.771,509.076 342.718,501.129 352.521,501.129C362.324,501.129 370.271,509.076 370.271,518.879" style="fill:rgb(231,177,33);fill-rule:nonzero;"/>
                    </g>
                    <g transform="matrix(1,0,0,1,-123.305,123.305)">
                        <path d="M331.935,514.626L331.935,523.626L319.393,519.501L331.935,514.626Z" style="fill:rgb(231,177,33);fill-rule:nonzero;"/>
                    </g>
                    <g transform="matrix(1,0,0,1,-123.305,123.305)">
                        <path d="M373.863,523.355L373.863,514.897L385.649,518.774L373.863,523.355Z" style="fill:rgb(231,177,33);fill-rule:nonzero;"/>
                    </g>
                    <g transform="matrix(1,0,0,1,-123.305,123.305)">
                        <path d="M334.782,530.501L341.146,536.865L329.362,542.816L334.782,530.501Z" style="fill:rgb(231,177,33);fill-rule:nonzero;"/>
                    </g>
                    <g transform="matrix(1,0,0,1,-123.305,123.305)">
                        <path d="M370.603,507.025L364.623,501.045L375.697,495.453L370.603,507.025Z" style="fill:rgb(231,177,33);fill-rule:nonzero;"/>
                    </g>
                    <g transform="matrix(1,0,0,1,-123.305,123.305)">
                        <path d="M341.138,501.38L334.775,507.744L328.823,495.959L341.138,501.38Z" style="fill:rgb(231,177,33);fill-rule:nonzero;"/>
                    </g>
                    <g transform="matrix(1,0,0,1,-123.305,123.305)">
                        <path d="M364.614,537.2L370.594,531.22L376.187,542.294L364.614,537.2Z" style="fill:rgb(231,177,33);fill-rule:nonzero;"/>
                    </g>
                    <g transform="matrix(1,0,0,1,-123.305,123.305)">
                        <path d="M357.021,498.54L348.021,498.54L352.146,485.998L357.021,498.54Z" style="fill:rgb(231,177,33);fill-rule:nonzero;"/>
                    </g>
                    <g transform="matrix(1,0,0,1,-123.305,123.305)">
                        <path d="M348.292,540.468L356.75,540.468L352.873,552.254L348.292,540.468Z" style="fill:rgb(231,177,33);fill-rule:nonzero;"/>
                    </g>
                </g>
                <g>
                    <g transform="matrix(1,0,0,1,-268.745,117.305)">
                        <path d="M313.694,221.602L418.156,427.343L256.105,427.322L276.646,387.613L356.317,387.613L273.148,221.602L313.694,221.602Z" style="fill:rgb(41,38,39);fill-rule:nonzero;"/>
                    </g>
                    <g transform="matrix(1,0,0,1,-268.745,117.305)">
                        <path d="M165.26,429.927L185.64,470.718L270.783,305.61L307.833,382.405L347.848,382.405L267.833,224.416L165.26,429.927Z" style="fill:rgb(41,38,39);fill-rule:nonzero;"/>
                    </g>
                    <g transform="matrix(1,0,0,1,-268.745,117.305)">
                        <path d="M270.628,317.274L288.26,353.82L247.545,432.533L419,432.515L401.581,473.547L190.015,473.562L270.628,317.274Z" style="fill:rgb(41,38,39);fill-rule:nonzero;"/>
                    </g>
                </g>
            </g>
        </g>
    </g>
</svg>
